<svg width="64" height="64" viewBox="0 0 64 64" fill="none" xmlns="http://www.w3.org/2000/svg">
  <!-- Larger brain-inspired icon with better visibility -->
  <defs>
    <linearGradient id="brainGradient" x1="0%" y1="0%" x2="100%" y2="100%">
      <stop offset="0%" style="stop-color:#667eea;stop-opacity:1" />
      <stop offset="50%" style="stop-color:#764ba2;stop-opacity:1" />
      <stop offset="100%" style="stop-color:#f093fb;stop-opacity:1" />
    </linearGradient>
    <filter id="glow">
      <feGaussianBlur stdDeviation="2" result="coloredBlur"/>
      <feMerge> 
        <feMergeNode in="coloredBlur"/>
        <feMergeNode in="SourceGraphic"/>
      </feMerge>
    </filter>
  </defs>
  
  <!-- Brain shape - larger and more prominent -->
  <path d="M32 8C24 8 18 14 16 22C14 22 12 24 12 26C12 28 14 30 16 30C14 38 24 46 30 48C30 50 31 52 32 52C33 52 34 50 34 48C40 46 50 38 48 30C50 30 52 28 52 26C52 24 50 22 48 22C46 14 40 8 32 8Z" fill="url(#brainGradient)" stroke="#ffffff" stroke-width="1" filter="url(#glow)"/>
  
  <!-- Neural network dots - larger and more visible -->
  <circle cx="24" cy="26" r="2.5" fill="#ffffff" opacity="0.9"/>
  <circle cx="40" cy="26" r="2.5" fill="#ffffff" opacity="0.9"/>
  <circle cx="32" cy="32" r="2.5" fill="#ffffff" opacity="0.9"/>
  <circle cx="28" cy="20" r="2" fill="#ffffff" opacity="0.7"/>
  <circle cx="36" cy="20" r="2" fill="#ffffff" opacity="0.7"/>
  <circle cx="26" cy="38" r="1.8" fill="#ffffff" opacity="0.6"/>
  <circle cx="38" cy="38" r="1.8" fill="#ffffff" opacity="0.6"/>
  
  <!-- Neural connections - thicker lines -->
  <line x1="24" y1="26" x2="32" y2="32" stroke="#ffffff" stroke-width="1.5" opacity="0.6"/>
  <line x1="40" y1="26" x2="32" y2="32" stroke="#ffffff" stroke-width="1.5" opacity="0.6"/>
  <line x1="28" y1="20" x2="32" y2="32" stroke="#ffffff" stroke-width="1.2" opacity="0.5"/>
  <line x1="36" y1="20" x2="32" y2="32" stroke="#ffffff" stroke-width="1.2" opacity="0.5"/>
  <line x1="26" y1="38" x2="32" y2="32" stroke="#ffffff" stroke-width="1" opacity="0.4"/>
  <line x1="38" y1="38" x2="32" y2="32" stroke="#ffffff" stroke-width="1" opacity="0.4"/>
  
  <!-- AI sparkles - bigger and more prominent -->
  <path d="M14 12L16 16L18 12L16 8L14 12Z" fill="#fbbf24" opacity="0.9" filter="url(#glow)"/>
  <path d="M46 16L48 20L50 16L48 12L46 16Z" fill="#fbbf24" opacity="0.9" filter="url(#glow)"/>
  <path d="M12 48L14 52L16 48L14 44L12 48Z" fill="#fbbf24" opacity="0.8"/>
  <path d="M48 48L50 52L52 48L50 44L48 48Z" fill="#fbbf24" opacity="0.8"/>
</svg>
